<svg width="353" height="61" viewBox="0 0 353 61" fill="none" xmlns="http://www.w3.org/2000/svg">
<path d="M5.79261 52V8.36364H15.0185V26.3679H33.7472V8.36364H42.9517V52H33.7472V33.9744H15.0185V52H5.79261ZM58.0795 52H48.1932L63.2571 8.36364H75.1463L90.1889 52H80.3026L69.3722 18.3352H69.0312L58.0795 52ZM57.4616 34.848H80.8139V42.0497H57.4616V34.848ZM131.94 8.36364V52H123.971L104.987 24.5355H104.667V52H95.4411V8.36364H103.538L122.373 35.8068H122.756V8.36364H131.94ZM166.515 8.36364H175.741V36.7017C175.741 39.8835 174.981 42.6676 173.461 45.054C171.956 47.4403 169.846 49.3011 167.133 50.6364C164.42 51.9574 161.26 52.6179 157.652 52.6179C154.029 52.6179 150.862 51.9574 148.149 50.6364C145.436 49.3011 143.326 47.4403 141.821 45.054C140.315 42.6676 139.562 39.8835 139.562 36.7017V8.36364H148.788V35.9134C148.788 37.5753 149.15 39.0526 149.875 40.3452C150.613 41.6378 151.65 42.6534 152.985 43.392C154.321 44.1307 155.876 44.5 157.652 44.5C159.441 44.5 160.997 44.1307 162.318 43.392C163.653 42.6534 164.683 41.6378 165.407 40.3452C166.146 39.0526 166.515 37.5753 166.515 35.9134V8.36364ZM183.332 52V8.36364H192.558V27.6037H193.133L208.836 8.36364H219.894L203.701 27.902L220.086 52H209.049L197.096 34.0597L192.558 39.5994V52H183.332ZM224.699 52V8.36364H233.925V27.6037H234.5L250.203 8.36364H261.261L245.068 27.902L261.453 52H250.416L238.463 34.0597L233.925 39.5994V52H224.699ZM273.587 52H263.701L278.765 8.36364H290.654L305.697 52H295.81L284.88 18.3352H284.539L273.587 52ZM272.969 34.848H296.322V42.0497H272.969V34.848ZM310.949 52V8.36364H320.175V26.3679H338.903V8.36364H348.108V52H338.903V33.9744H320.175V52H310.949Z" fill="#372211" style="fill:#372211;fill:color(display-p3 0.2150 0.1340 0.0659);fill-opacity:1;"/>
<path d="M207.557 3H1L3.99358 58.5L90.2087 60L349.5 56.5L351.848 1L207.557 3Z" stroke="#372211" style="stroke:#372211;stroke:color(display-p3 0.2157 0.1333 0.0667);stroke-opacity:1;"/>
</svg>
