<svg width="224" height="55" viewBox="0 0 224 55" fill="none" xmlns="http://www.w3.org/2000/svg">
<path d="M5.8224 52.1805V8.54418H15.0483V26.5484H33.7769V8.54418H42.9815V52.1805H33.7769V34.155H15.0483V52.1805H5.8224ZM58.1093 52.1805H48.223L63.2869 8.54418H75.1761L90.2187 52.1805H80.3323L69.4019 18.5158H69.061L58.1093 52.1805ZM57.4914 35.0286H80.8437V42.2303H57.4914V35.0286ZM95.4708 52.1805V8.54418H112.687C115.996 8.54418 118.816 9.17628 121.146 10.4405C123.475 11.6905 125.251 13.4305 126.472 15.6607C127.708 17.8766 128.326 20.4334 128.326 23.3311C128.326 26.2288 127.701 28.7857 126.451 31.0016C125.201 33.2175 123.39 34.9433 121.018 36.1791C118.66 37.4149 115.805 38.0328 112.452 38.0328H101.479V30.6393H110.961C112.736 30.6393 114.2 30.334 115.35 29.7232C116.515 29.0982 117.381 28.2388 117.95 27.145C118.532 26.0371 118.823 24.7658 118.823 23.3311C118.823 21.8822 118.532 20.618 117.95 19.5385C117.381 18.4447 116.515 17.5996 115.35 17.003C114.185 16.3922 112.708 16.0868 110.918 16.0868H104.697V52.1805H95.4708ZM134.318 52.1805V8.54418H151.534C154.844 8.54418 157.664 9.17628 159.993 10.4405C162.323 11.6905 164.098 13.4305 165.32 15.6607C166.556 17.8766 167.174 20.4334 167.174 23.3311C167.174 26.2288 166.549 28.7857 165.299 31.0016C164.049 33.2175 162.238 34.9433 159.865 36.1791C157.507 37.4149 154.652 38.0328 151.3 38.0328H140.327V30.6393H149.809C151.584 30.6393 153.047 30.334 154.198 29.7232C155.363 29.0982 156.229 28.2388 156.797 27.145C157.38 26.0371 157.671 24.7658 157.671 23.3311C157.671 21.8822 157.38 20.618 156.797 19.5385C156.229 18.4447 155.363 17.5996 154.198 17.003C153.033 16.3922 151.556 16.0868 149.766 16.0868H143.544V52.1805H134.318ZM170.609 8.54418H180.943L190.893 27.3368H191.32L201.27 8.54418H211.604L195.687 36.7544V52.1805H186.526V36.7544L170.609 8.54418Z" fill="#372211" style="fill:#372211;fill:color(display-p3 0.2150 0.1340 0.0659);fill-opacity:1;"/>
<path d="M222.909 4.9436L0.908691 2.4436V53.9436L220.909 51.9436L222.909 4.9436Z" stroke="#372211" style="stroke:#372211;stroke:color(display-p3 0.2157 0.1333 0.0667);stroke-opacity:1;"/>
</svg>
